<svg xmlns="http://www.w3.org/2000/svg" xmlns:xlink="http://www.w3.org/1999/xlink" width="529.784" height="340.068" viewBox="0 0 496.673 318.813"><defs><linearGradient id="a"><stop offset="0" stop-color="#273244"/><stop offset="1" stop-color="#273244" stop-opacity="0"/></linearGradient><linearGradient xlink:href="#a" id="c" x1="-282.143" y1="-239.148" x2="-136.429" y2="-196.291" gradientUnits="userSpaceOnUse"/><filter id="b" x="-.029" width="1.058" y="-.047" height="1.094" color-interpolation-filters="sRGB"><feGaussianBlur stdDeviation="5.705"/></filter><filter id="e" x="-.058" width="1.116" y="-.062" height="1.124" color-interpolation-filters="sRGB"><feGaussianBlur stdDeviation="3.82"/></filter><clipPath clipPathUnits="userSpaceOnUse" id="d"><path d="M344.504 98.076l-83.445 233.572h223.226a2.138 2.138 0 002.143-2.142V100.219a2.138 2.138 0 00-2.143-2.143H344.504z" fill="#b3b3b3"/></clipPath></defs><g transform="translate(-50.592 -71.956)"><path d="M105 85.648a7.84 7.84 0 00-7.857 7.858v250.713a7.834 7.834 0 005.205 7.392H64.285v11.895c0 7.518 22.938 13.57 51.43 13.57h365.713c28.491 0 51.43-6.052 51.43-13.57v-1.787h.714V351.61h-35.92a7.834 7.834 0 005.205-7.392V93.506A7.84 7.84 0 00495 85.648H105z" opacity=".683" fill="#483737" fill-rule="evenodd" stroke="#483737" stroke-width="10" stroke-linejoin="round" filter="url(#b)"/><rect width="405.714" height="266.429" x="97.143" y="81.648" ry="7.857" fill="#1a1a1a" fill-rule="evenodd"/><rect width="372.857" height="233.571" x="113.571" y="98.076" ry="2.143" fill="#253041" fill-rule="evenodd"/><path d="M64.285 357.719v1.787c0 7.518 22.938 13.57 51.43 13.57h365.713c28.491 0 51.43-6.052 51.43-13.57v-1.787H64.284z" fill="#e6e6e6" fill-rule="evenodd"/><rect width="469.286" height="10.109" x="64.286" y="347.611" rx="0" ry="0" fill="#f9f9f9" fill-rule="evenodd"/><path d="M250.715 347.611v1.18a4.275 4.275 0 004.285 4.285h105.715a4.275 4.275 0 004.285-4.285v-1.18H250.715z" fill="#666" fill-rule="evenodd"/><rect width="92.5" height="10" x="132.5" y="127.362" ry="2.143" fill="#e66b19"/><rect ry="2.143" y="147.362" x="145" height="10" width="75" fill="#fff"/><rect ry="2.143" y="147.362" x="240" height="10" width="45" fill="#fff"/><rect ry="2.143" y="167.362" x="145" height="10" width="75" fill="#378c16"/><rect ry="2.143" y="167.362" x="240" height="10" width="45" fill="#fff"/><rect width="75" height="10" x="145" y="187.362" ry="2.143" fill="#378c16"/><rect width="45" height="10" x="240" y="187.362" ry="2.143" fill="#418dd0"/><rect width="75" height="10" x="132.5" y="207.362" ry="2.143" fill="#fff"/><rect ry="2.143" y="227.362" x="145" height="10" width="75" fill="#418dd0"/><rect ry="2.143" y="227.362" x="240" height="10" width="45" fill="#fff"/><rect ry="2.143" y="247.362" x="145" height="10" width="75" fill="#418dd0"/><rect ry="2.143" y="247.362" x="240" height="10" width="45" fill="#fff"/><rect width="75" height="10" x="145" y="267.362" ry="2.143" fill="#418dd0"/><rect width="45" height="10" x="240" y="267.362" ry="2.143" fill="#fff"/><rect width="117.5" height="10" x="137.5" y="287.362" ry="2.143" fill="#e66b19"/><rect ry="2.143" y="307.362" x="136.25" height="10" width="117.5" fill="#e66b19"/><rect width="240" height="235" x="-353.571" y="-332.362" ry="2.429" transform="scale(-1)" fill="url(#c)"/><path d="M344.504 98.076l-83.445 233.572h223.226a2.138 2.138 0 002.143-2.142V100.219a2.138 2.138 0 00-2.143-2.143H344.504z" fill="#afc6e9"/><rect width="70" height="130" x="380" y="157.362" ry="1.857" fill="#fff"/><rect ry="2.429" y="136.362" x="200" height="170" width="270" clip-path="url(#d)" fill="none" stroke="#fff" stroke-width="4.859" stroke-dasharray="19.436,9.718"/><rect ry=".929" y="222.362" x="304" height="65" width="65.333" fill="#fff"/><path d="M323.324 157.361L304 211.451v.83c0 .441.356.795.797.795h63.74a.794.794 0 00.797-.795v-54.123a.796.796 0 00-.797-.797h-45.213z" fill="#fff"/><rect width="50" height="10" x="390" y="172.362" ry="2.429" fill="#4b6284"/><rect ry="2.429" y="192.362" x="390" height="10" width="50" fill="#4b6284"/><rect width="50" height="10" x="390" y="212.362" ry="2.429" fill="#4b6284"/><rect ry="2.429" y="232.362" x="390" height="10" width="50" fill="#4b6284"/><rect width="50" height="10" x="390" y="252.362" ry="2.429" fill="#4b6284"/><rect width="50" height="10" x="310" y="232.362" ry="2.429" fill="#4b6284"/><rect ry="2.429" y="252.362" x="310" height="10" width="50" fill="#4b6284"/><path d="M320.518 165.219l-8.85 24.77v12.802a2.422 2.422 0 002.428 2.428h45.142a2.424 2.424 0 002.43-2.428v-35.145a2.424 2.424 0 00-2.43-2.427h-38.72z" fill="#4b6284"/><path d="M528.872 107.103c-6.048 2.268-9.716 8.887-14.983 12.55-36.497 33.407-72.992 66.816-109.49 100.222-4.045 14.559-8.088 29.119-12.132 43.678 15.064-3.334 30.714-4.805 45.453-9.112 41.154-37.668 82.306-75.339 123.46-113.005-6.99-13.63-17.853-25.285-30.284-33.97-.638-.263-1.332-.413-2.024-.363z" opacity=".545" fill="#241c1c" filter="url(#e)" transform="translate(-14)"/><path d="M547.18 141.436L426 252.363l-37.109 6.854 10.1-36.36L520.172 111.93l8.228 6.026 6.752 7.377 6.752 7.376z" fill="teal"/><path d="M426 252.362l-5.277-8.726-6.752-7.377-6.752-7.376-8.227-6.026-10.1 36.36z" fill="#e3dbdb"/><path d="M402.807 256.646l-10.128-11.064-3.787 13.634 13.915-2.57z" fill="#483737"/></g></svg>