<svg width="32.616" height="36.36" viewBox="0 0 8.63 9.62" xmlns="http://www.w3.org/2000/svg"><path d="M3.83 8.796l-.172-.022c-1.007-.122-1.763-.638-2.196-1.5-.262-.522-.403-1.115-.469-1.972l-.01-.124h1.38c1.092 0 1.378.004 1.378.019 0 .045.094.213.158.281a.678.678 0 00.528.227c.306 0 .58-.193.668-.47l.018-.057h2.541v.087c0 .2-.06.658-.122.95-.296 1.388-1.098 2.242-2.354 2.506-.303.063-.55.085-.948.083a9.046 9.046 0 01-.4-.008z" fill="#fff"/><g transform="translate(-123.214 -52.201) scale(.28222)"><path d="M451.977 187.868c-8.01 0-12.014 4.658-12.014 13.973 0 .28.015.54.022.812h23.717c.006-.25.021-.489.021-.746 0-9.36-3.916-14.039-11.746-14.039z" fill="#ff2a2a"/><path d="M452.311 184.965q7.155 0 11.003 4.32 3.847 4.253 3.847 12.083 0 8.505-4.117 13.095-4.05 4.59-11.543 4.59-7.155 0-11.07-4.388-3.847-4.387-3.847-12.42 0-8.302 4.05-12.757 4.117-4.523 11.677-4.523zm-.27 2.903q-12.015 0-12.015 13.972 0 14.378 11.61 14.378 5.94 0 9.045-3.578 3.105-3.577 3.105-10.732 0-14.04-11.745-14.04z" style="line-height:1.25;-inkscape-font-specification:'Alegreya Sans SC Light'" font-weight="300" font-size="67.5" font-family="Alegreya Sans SC" letter-spacing="0" word-spacing="0" fill="#222"/><circle cx="452.257" cy="202.68" r="2.5" fill="#222"/><path fill="#222" d="M438.619 202.048h27.274v1.263h-27.274z"/></g></svg>