<svg xmlns="http://www.w3.org/2000/svg" version="1.1" id="Layer_1" x="0" y="0" xml:space="preserve" width="1400" height="960"><defs id="defs43"><filter id="filter3976" x="-.063" width="1.126" y="-.057" height="1.114" color-interpolation-filters="sRGB"><feGaussianBlur stdDeviation="15.545" id="feGaussianBlur3978"/></filter></defs><style type="text/css" id="style3">.st1{fill:#f2f2f2}.st4{fill:#1f6175}.st7{fill:#a67c52}.st8{fill:#c69c6d}</style><path d="M856.289 169.826a20.236 20.236 0 00-6.024.906l-356.601 109c-10.7 3.2-16.699 14.501-13.399 25.201l1.53 5h-19.43c-23.514 0-42.748 18.389-44.115 41.56-.092-1.265-.086-2.06-.086-2.06v419.7h.916c5.096 30.01 31.233 52.9 62.685 52.9h449.2c31.451 0 57.586-22.89 62.683-52.9h.916v-110.1h2.4c7 0 12.6-5.7 12.6-12.6v-87.101c0-7-5.7-12.7-12.7-12.7h-2.3v-181c0-30.8-24.9-55.699-55.7-55.699h-24.91l-38.49-125.8c-2.6-8.694-10.547-14.286-19.175-14.307z" id="path3097" opacity=".79" fill="#6c5353" stroke="#483737" stroke-width="20" stroke-miterlimit="4" stroke-dasharray="none" stroke-opacity="1" filter="url(#filter3976)"/><path id="path7" d="M944.297 729.6h-488c-24.4 0-44.2-19.8-44.2-44.2V338.2c0-24.4 19.8-44.2 44.2-44.2h476.5c30.8 0 55.7 24.9 55.7 55.7v335.7c0 24.4-19.8 44.2-44.2 44.2z" fill="#754c24"/><path id="path9" d="M893.097 738.9h-417.4c-35.1 0-63.6-28.5-63.6-63.6V390.8c0-35.1 28.5-63.6 63.6-63.6h417.4c35.1 0 63.6 28.5 63.6 63.6v284.4c0 35.2-28.5 63.7-63.6 63.7z" class="st1" fill="#f2f2f2"/><g id="g11" transform="translate(227.797)"><path id="path13" d="M685.2 379.7l-356.6 109c-10.7 3.3-22-2.7-25.2-13.4l-57-186.3c-3.3-10.7 2.7-22 13.4-25.2l356.6-109c10.7-3.3 22 2.7 25.2 13.4l57 186.3c3.3 10.7-2.7 22-13.4 25.2z" fill="#4b9cb2"/><path id="rect15" transform="rotate(-17.001 457.947 274.31)" fill="#1b4a59" d="M251.3 247.2h413.3v54.2H251.3z"/><path id="rect17" class="st4" transform="rotate(-17.001 473.55 325.196)" fill="#1f6175" d="M408.6 321.1h129.9v8.2H408.6z"/><path id="rect19" class="st4" transform="rotate(-17.001 480.757 348.689)" fill="#1f6175" d="M415.8 344.6h129.9v8.2H415.8z"/><path id="rect21" class="st4" transform="rotate(-17.001 487.964 372.181)" fill="#1f6175" d="M423 368.1h129.9v8.2H423z"/><circle r="24.2" id="ellipse23" cy="304.7" cx="629.3" transform="matrix(.06021 -.9982 .9982 .06021 287.255 914.463)" fill="#fbb03b"/><circle r="24.2" id="ellipse25" cy="314.9" cx="596.1" transform="rotate(-41.546 596.081 314.872)" fill="#c1272d"/></g><path id="path27" d="M916.997 399.6h-455.2v-49.1h409.9c25 0 45.3 20.3 45.3 45.3v3.8z" class="st1" fill="#f2f2f2"/><path id="path29" d="M924.897 806.1h-449.2c-35.1 0-63.6-28.5-63.6-63.6V434.1c0-35.1 28.5-63.6 63.6-63.6h449.2c35.1 0 63.6 28.5 63.6 63.6v308.4c0 35.1-28.5 63.6-63.6 63.6z" class="st7" fill="#a67c52"/><path id="path31" d="M990.897 643.1h-116.9c-31.1 0-56.2-25.2-56.2-56.2 0-31.1 25.2-56.2 56.2-56.2h116.8c7 0 12.7 5.7 12.7 12.7v87.1c0 6.9-5.6 12.6-12.6 12.6z" class="st8" fill="#c69c6d"/><circle id="circle33" r="34.6" cy="586.9" cx="875.997" fill="#e5c19e"/><path id="rect35" class="st8" fill="#c69c6d" d="M412.097 438.1h576.4v30h-576.4z"/><path id="rect37" class="st8" fill="#c69c6d" d="M412.097 723.2h576.4v30h-576.4z"/><path id="path39" d="M412.097 333.5s-1 37 43.9 37h35.6l-79.5 63.7V333.5z" class="st7" fill="#a67c52"/></svg>